<svg width="1032" height="900" viewBox="0 0 1032 900" fill="none" xmlns="http://www.w3.org/2000/svg">
<rect width="1032" height="900" fill="white"/>
<path d="M960 0H72V900H960V0Z" fill="white"/>
<path d="M747.74 586.831C747.74 586.831 750.258 623.596 751.266 615.034C752.273 606.472 755.799 599.421 759.828 603.954C763.857 608.487 758.82 631.151 761.842 626.114C764.864 621.078 772.419 588.845 765.368 583.305C758.317 577.765 747.74 586.831 747.74 586.831Z" fill="#EFA2C8"/>
<path d="M616.986 55.0479C616.986 55.0479 655.551 37.7334 706.708 74.7236C757.864 111.714 820.039 103.057 820.039 103.057L784.623 214.814C784.623 214.814 708.895 219.591 665.578 180.693C637.782 155.732 594.611 168.19 587.079 173.102C568.978 184.907 616.986 55.0479 616.986 55.0479Z" fill="#EBF8F5"/>
<path d="M708 191C735.062 191 757 167.943 757 139.5C757 111.057 735.062 88 708 88C680.938 88 659 111.057 659 139.5C659 167.943 680.938 191 708 191Z" fill="white"/>
<path d="M617.197 54.9666C617.18 54.9743 616.987 55.0487 616.987 55.0487C616.987 55.0487 568.978 184.909 587.079 173.103C592.87 169.327 619.722 161.108 644.46 168.842L644.569 168.781C644.569 168.781 586.83 132.137 617.197 54.9664V54.9666Z" fill="#D1EFE8"/>
<path d="M666.302 490.676L713.027 527.327L747.89 598.685L768.057 590.274C768.057 590.274 738.114 468.943 674.61 443.933C584.508 408.447 666.302 490.676 666.302 490.676Z" fill="#D72089"/>
<path d="M489.084 521.077L487.479 520.647C485.558 520.132 484.417 518.157 484.932 516.235L608.123 56.4794C608.638 54.5578 610.614 53.4174 612.535 53.9323L614.14 54.3623C616.062 54.8772 617.202 56.8524 616.687 58.7741L493.496 518.53C492.981 520.451 491.006 521.592 489.084 521.077Z" fill="#D71930"/>
<path d="M505.536 404.969L519.425 381.821L517.644 392.505C517.644 392.505 527.972 387.163 530.465 378.616C532.958 370.069 535.45 385.382 530.465 393.929C525.479 402.476 499.838 424.2 499.838 424.2L505.536 404.969Z" fill="#EFD39D"/>
<path d="M417.173 371.392C417.173 371.392 426.073 365.586 432.853 357.673C445.35 343.087 432.131 322.031 454.732 323.157C477.958 324.314 470.412 346.677 470.412 346.677L472.932 353.397H469.012L468.732 355.357L459.492 354.797C459.492 354.797 462.572 359.836 466.212 360.396C469.852 360.956 461.172 368.236 450.252 368.236C439.333 368.236 434.293 389.796 434.293 389.796L417.173 371.392Z" fill="#EFD39D"/>
<path d="M424.517 359.919L429.503 357.604L441.433 374.164L441.967 382.355L424.517 359.919Z" fill="#333353"/>
<path d="M416.849 349.113C416.849 349.113 458.148 394.441 460.162 404.513C462.177 414.586 453.111 479.556 453.111 479.556L505.81 401.98L507.662 417.77C507.662 417.77 473.76 510.278 444.046 512.796C414.331 515.314 396.2 408.039 396.2 408.039L416.849 349.113Z" fill="#FFAB40"/>
<path d="M326.048 448.417L299.694 499.699L372.344 526.053L442.145 432.747L326.048 448.417Z" fill="#FFAB40"/>
<path d="M416.849 414.083C416.849 414.083 486.351 501.716 486.351 524.883C486.351 548.051 344.325 607.48 344.325 607.48L400.732 409.046L416.849 414.083Z" fill="#0C7C4B"/>
<path d="M397.711 412.068C397.711 412.068 420.878 483.585 416.849 531.934C412.82 580.284 310.077 654.822 310.077 654.822L291.946 637.699L368.5 523.876C368.5 523.876 290.939 417.104 339.289 405.017C387.638 392.93 397.711 412.068 397.711 412.068Z" fill="#0DBB6E"/>
<path d="M342.43 295.994C343.118 289.737 427.9 247.69 433.598 258.245C436.79 264.158 412.943 313.088 417.928 353.687C422.914 394.285 425.763 420.639 422.914 425.625C420.065 430.61 360.236 408.53 334.595 414.228C308.954 419.926 338.156 340.866 333.17 328.046C328.184 315.225 341.005 308.943 342.43 295.994Z" fill="#4285F4"/>
<path d="M363.966 305.8C363.966 305.8 347.692 318.651 333.631 335.319C331.906 358.707 312.043 419.239 334.595 414.228C341.257 412.748 350.234 413.151 359.913 414.459C359.244 407.972 357.235 399.412 352.383 388.9C340.296 362.71 363.966 305.8 363.966 305.8Z" fill="#494DC7"/>
<path d="M283.313 325.197C283.312 325.197 343.499 375.657 410.094 341.579L383.028 442.006C383.028 442.006 266.931 436.308 258.384 401.408L283.313 325.197Z" fill="#B8CEC9"/>
<path d="M286.259 319.467C286.258 319.467 329.676 384.916 403.199 371.11L348.78 459.749C348.78 459.749 239.058 421.38 240.753 385.488L286.259 319.467Z" fill="#DBEEEA"/>
<path d="M355.606 495.07C355.606 495.07 354.894 472.99 373.057 469.785C378.738 468.782 379.889 463.771 378.407 457.468C372.929 459.919 367.796 454.585 367.796 454.585C367.436 453.551 376.186 450.991 376.186 450.991C375.555 449.548 374.835 448.086 374.044 446.632L376.846 444.131C376.846 444.131 369.249 438.744 367.179 436.423C361.263 429.789 357.984 423.626 350.621 423.844C332.044 424.394 331.17 441.44 334.951 447.349C340.649 456.252 345.635 467.648 334.239 486.166" fill="#EFD39D"/>
<path d="M306.048 487.362C306.048 487.362 246.871 520.35 247.374 552.835C247.878 585.32 247.878 585.824 247.878 585.824L278.096 578.017L273.815 549.813L298.746 532.186L306.048 487.362Z" fill="#D72089"/>
<path d="M272.808 621.078C248.176 660.883 252.599 691.507 257.699 737.922L191.219 795.337L202.299 809.943C202.299 809.943 313.359 763.745 331.49 685.681C349.621 607.617 272.808 621.078 272.808 621.078Z" fill="#FFAB40"/>
<path d="M311.593 551.976L224.175 562.718C223.02 562.86 222.199 563.911 222.341 565.066L229.661 624.636C229.803 625.791 230.854 626.612 232.009 626.47L319.427 615.728C320.581 615.586 321.402 614.535 321.261 613.38L313.94 553.81C313.798 552.655 312.747 551.834 311.593 551.976Z" fill="#733B2A"/>
<path d="M292.571 635.739C292.571 635.739 284.024 654.258 292.571 685.597C298.212 706.278 293.304 737.193 279.081 762.38C302.668 742.372 324.328 716.515 331.489 685.681C333.005 679.154 333.845 673.28 334.133 667.971L292.571 635.739Z" fill="#F17E14"/>
<path d="M349.361 626.618C349.361 626.618 434.476 662.376 424.404 702.164C414.331 741.951 348.354 802.388 348.354 802.388L332.238 790.805L379.854 711.733C379.854 711.733 297.99 700.149 285.399 660.865C272.808 621.582 349.361 626.618 349.361 626.618Z" fill="#FFAB40"/>
<path d="M222.593 563.268C222.593 563.268 232.208 592.648 237.194 596.566C242.18 600.483 281.888 576.623 292.394 579.293C302.9 581.964 296.489 554.187 296.489 554.187L222.593 563.268Z" fill="#3E1B0E"/>
<path d="M312.159 484.03C322.242 480.095 379.823 494.713 390.507 510.739C401.191 526.765 369.851 539.942 369.851 551.338C369.851 562.734 372.344 564.87 357.743 592.648C343.142 620.426 352.401 628.261 352.401 628.261C352.401 628.261 281.532 644.287 269.067 623.631C269.067 623.631 285.657 588.394 286.518 526.409C286.874 500.768 305.502 486.627 312.159 484.03Z" fill="#D72089"/>
<path d="M356.319 532.463C356.319 532.463 362.18 554.568 347.771 579.115C331.924 606.112 348 629.169 348 629.169C350.7 628.636 352.401 628.261 352.401 628.261C352.401 628.261 343.142 620.426 357.743 592.648C371.364 566.734 370.11 563.131 369.88 553.512L356.319 532.463Z" fill="#BB1D78"/>
<path d="M580.595 757.54C580.595 757.54 588.906 777.998 579.956 795.259C571.006 812.52 599.135 782.473 599.775 774.162C600.414 765.851 600.414 765.851 600.414 765.851L606.807 771.605L614.479 763.294L591.464 749.229L580.595 757.54Z" fill="#06492C"/>
<path d="M606.676 629.329C606.676 629.329 636.069 689.068 659.383 711.951C686.002 738.077 754.825 770.355 754.825 770.355C754.825 770.355 687.873 664.942 689.297 653.546C690.722 642.15 692.503 584.457 692.503 584.457L606.676 629.329Z" fill="#494DC7"/>
<path d="M643.713 623.631C671.058 694.024 710.962 756.882 776.192 804.543L784.739 801.694L726.335 699.13C726.335 699.13 727.759 605.529 690.722 594.133C653.685 582.737 643.713 623.631 643.713 623.631Z" fill="#4285F4"/>
<path d="M585.725 454.216C640.996 424.278 661.224 420.028 674.045 439.971C686.866 459.914 677.728 574.709 706.219 593.228C734.709 611.747 600.978 632.179 600.978 632.179C600.978 632.179 551.537 472.735 585.725 454.216Z" fill="#D72089"/>
<path d="M666.505 493.645C666.505 493.645 656.178 523.56 669.711 545.284C681.877 564.815 690.582 597.287 689.112 612.446C706.247 606.446 716.206 599.72 706.219 593.228C689.38 582.282 685.693 537.756 682.84 499.009L666.505 493.645Z" fill="#BB1D78"/>
<path d="M672.274 487.172C672.706 515.982 677.722 568.036 584.717 630.006L593.967 753.442L584.819 770.359C584.819 770.359 524.702 700.898 551.894 598.408C563.049 556.365 605.754 506.621 605.754 506.621L672.274 487.172Z" fill="#494DC7"/>
<path d="M501.713 622.586C501.713 622.586 502.214 644.662 487.715 657.618C473.216 670.573 510.186 652.479 513.736 644.938C517.286 637.396 517.286 637.396 517.286 637.396L521.218 645.045L531.342 640.002L514.825 618.678L501.713 622.586Z" fill="#06492C"/>
<path d="M562.149 308.066C562.149 308.066 556.861 267.523 555.602 271.049C554.343 274.574 554.343 292.957 549.306 303.281C544.27 313.606 555.602 328.464 555.602 328.464L562.149 308.066Z" fill="#EFA2C8"/>
<path d="M606.721 448.33L575.999 393.433L562.905 302.778L551.824 334.003C551.824 334.003 527.65 440.271 579.525 490.635C653.128 562.095 606.721 448.33 606.721 448.33Z" fill="#D72089"/>
<path d="M563.128 304.324C563.024 304.456 562.937 304.641 562.872 304.897C542.573 385.025 600.266 481.537 600.266 481.537L612.762 464.813C609.585 455.356 606.722 448.33 606.722 448.33L575.999 393.433L563.128 304.324Z" fill="#BB1D78"/>
<path d="M673.934 503.096C673.934 503.096 641.329 555.519 573.563 525.471L513.468 506.931L519.861 622.646L501.321 627.761C501.321 627.761 437.39 461.541 521.779 464.737C606.168 467.934 613.839 468.573 613.839 468.573L673.934 503.096Z" fill="#4285F4"/>
<path d="M564.181 533.142L501.889 569.106C500.166 570.101 498.769 572.755 498.769 575.034V631.24C498.769 633.519 500.166 634.56 501.889 633.566L564.181 597.601C565.904 596.607 567.3 593.953 567.3 591.673V535.468C567.3 533.189 565.904 532.148 564.181 533.142Z" fill="#F17E14"/>
<path d="M500.327 596.4L500.831 602.821C500.831 602.821 524.25 589.852 524.376 590.734C524.502 591.615 521.984 595.14 521.984 595.14C521.984 595.14 522.613 598.918 520.221 601.94C517.829 604.961 520.221 605.339 517.703 609.494C515.185 613.649 502.342 623.722 494.032 619.945C485.722 616.167 491.01 604.206 491.01 604.206C491.01 604.206 496.172 596.903 500.327 596.4Z" fill="#EFD39D"/>
<path d="M392.287 513.232L435.023 584.814L490.578 605.113L495.92 622.919C495.92 622.919 401.903 648.917 355.606 549.913C326.109 486.835 392.287 513.232 392.287 513.232Z" fill="#D72089"/>
<path d="M355.428 424.2C355.428 424.2 366.646 431.857 361.304 446.814C355.962 461.772 341.005 466.045 341.005 466.045C343.587 456.407 317.558 440.73 337.257 425.343C341.116 422.329 352.148 418.519 355.428 424.2Z" fill="#18213E"/>
<path d="M349.196 802.407C349.196 802.407 359.88 838.02 371.988 842.649C371.988 842.649 342.073 840.869 337.8 819.857C333.526 798.846 333.526 821.994 333.526 821.994L316.432 808.461C316.432 808.461 329.609 791.367 333.882 791.723C338.156 792.079 349.196 802.407 349.196 802.407Z" fill="#06492C"/>
<path d="M203.254 810.639C203.254 810.639 193.767 838.738 202.55 848.273C202.55 848.273 183.32 833.365 185.283 821.194C188.696 800.026 180.505 821.204 180.505 821.204L173 805.039C173 805.039 190.627 792.034 194.295 794.255C197.964 796.476 203.254 810.638 203.254 810.638V810.639Z" fill="#06492C"/>
<path d="M574.268 262.518C574.268 262.518 572.488 247.561 567.146 236.165C561.804 224.769 566.077 239.014 563.941 248.273C561.804 257.532 558.599 267.86 568.57 274.27C578.542 280.681 574.268 262.518 574.268 262.518Z" fill="#AA7036"/>
<path d="M623.982 450.456C623.982 450.456 613.051 436.023 614.119 423.588C615.186 411.153 622.782 397.714 616.386 390.011C608.933 381.035 588.483 384.697 584.551 399.05C582.71 405.773 581.316 412.737 580.718 418.91C580.532 420.83 589.215 420.505 589.215 420.505C586.175 428.663 580.438 427.536 580.577 428.935C581.162 434.807 583.222 438.608 587.376 438.504C597.022 438.262 608.94 458.406 606.311 463.527C603.681 468.648 623.982 450.456 623.982 450.456Z" fill="#EFA2C8"/>
<path d="M695.708 339.442L629.468 337.305L574.624 256.82L566.077 281.037C569.044 282.517 584.813 389.793 657.246 378.616C736.792 366.34 695.708 339.442 695.708 339.442Z" fill="#F17E14"/>
<path d="M671.104 338.649L615.925 370.369C626.499 377.144 639.256 380.774 654.654 378.964L671.921 338.675L671.104 338.649Z" fill="#D9700E"/>
<path d="M677.345 335.608C694.017 333.156 709.719 332.362 715.904 370.18C722.24 408.919 673.622 479.088 679.062 497.479C686.777 523.561 595.624 478.064 599.767 465.9C603.91 453.736 632.756 418.48 640.788 385.52C644.868 368.78 663.218 337.686 677.345 335.608Z" fill="#FFAB40"/>
<path d="M658.591 357.333L629.316 423.112L606.103 477.548C606.103 477.548 617.935 468.439 614.629 481.779C624.071 488.033 636.609 494.567 648.151 499.179C723.004 374.483 658.591 357.333 658.591 357.333Z" fill="#F17E14"/>
<path d="M565.675 533.193C565.675 533.193 553.366 583.344 539.737 590.105C524.308 597.758 496.424 571.47 499.95 570.211C503.437 568.964 549.288 538.152 565.675 533.193Z" fill="#FFA42A"/>
<path d="M584.24 536.736C584.24 536.736 566.968 566.295 563.406 561.665C561.691 559.435 556.866 562.128 555.741 558.317C554.531 554.215 549.828 559.264 551.12 556.679C553.613 551.694 566.79 535.668 566.79 535.668L577.473 519.286L584.24 536.736Z" fill="#AA7036"/>
<path d="M680.327 337.515C698.17 408.975 659.972 488.778 585.845 539.553L571.936 522.118L628.882 446.723C628.882 446.723 656.673 333.04 680.327 337.515Z" fill="#FFAB40"/>
<path d="M680.497 326.805C680.497 326.805 687.296 340.907 684.526 346.447C681.756 351.987 703.168 345.587 703.168 345.587C703.076 345.649 697.192 340.17 702.916 329.471" fill="#AA7036"/>
<path d="M700.902 335.011C700.902 335.011 704.976 318.422 716.393 301.633C724.955 289.042 695.866 272.056 682.267 293.209C668.669 314.362 669.173 334.003 675.216 334.507C681.26 335.011 693.347 328.463 693.347 328.463" fill="#AA7036"/>
<path d="M676.604 316.578L689.959 318.715C689.959 318.715 681.056 329.043 676.782 326.906C672.509 324.769 676.604 316.578 676.604 316.578Z" fill="white"/>
<path d="M555.35 198.021C555.331 197.729 575.052 176.646 577.258 175.357C579.563 174.01 571.347 191.682 571.347 191.682L567.643 205.118C567.643 205.118 558.372 218.67 553.587 214.389C548.803 210.108 555.35 198.021 555.35 198.021Z" fill="#FFAB40"/>
<path d="M424.404 256.947L469.415 257.105L555.854 193.488L554.846 217.159C552.1 221.38 505.195 306.968 420.375 311.843C365.485 314.998 412.316 280.618 412.316 280.618L424.404 256.947Z" fill="#4285F4"/>
<path d="M286.406 454.877C286.406 454.877 295.976 483.081 293.961 480.563C291.946 478.045 284.895 465.958 284.392 468.728C283.888 471.498 289.428 499.953 286.155 494.917C282.881 489.88 269.031 473.512 272.053 461.928C275.075 450.345 286.406 454.877 286.406 454.877Z" fill="#FFAB40"/>
<path d="M263.33 375.982C281.29 407.223 311.514 422.419 352.692 428.088" stroke="black"/>
<path d="M287.23 343.003C305.191 374.245 338.246 390.257 380.179 386.807" stroke="black"/>
<path d="M276.862 358.888C294.823 390.129 324.856 407.149 367.042 406.469" stroke="black"/>
<path d="M372.97 280.649L376.371 274.391C376.371 274.391 396.954 283.43 398.875 285.488C400.797 287.546 400.198 295.732 400.198 295.732L372.97 280.649Z" fill="#494DC7"/>
<path d="M367.332 323.406L318.316 385.464L289.599 461.461L267.728 464.888C267.569 464.779 276.157 332.521 344.059 292.709C391.488 264.902 367.332 323.406 367.332 323.406Z" fill="#4285F4"/>
<path d="M368.79 280.404C368.79 280.404 392.643 257.176 396.205 236.165C399.15 218.785 399.766 211.592 412.587 211.236C432.372 210.686 436.091 218.002 430.749 240.082C430.405 241.507 430.094 242.824 429.81 244.043C429.63 244.815 421.117 243.849 421.117 243.849C419.661 246.179 428.496 249.602 428.216 250.848C425.931 261.007 424.614 259.196 410.806 261.45C393.356 264.299 392.723 289.739 392.723 289.739L368.79 280.404Z" fill="#FFAB40"/>
<path d="M430.447 230.002L436.995 239.319L427.426 242.341L430.447 230.002Z" fill="#FFAB40"/>
<path d="M585.308 404.613L576.049 415.297L583.884 417.078L585.308 404.613Z" fill="#EFA2C8"/>
<path d="M773.426 803.396C773.426 803.396 775.441 823.541 764.36 831.6C753.28 839.658 781.988 830.089 781.988 821.023C781.988 811.958 784.506 816.49 787.528 816.49C790.55 816.49 796.09 811.958 796.09 811.958L779.973 796.345L773.426 803.396Z" fill="#06492C"/>
<path d="M466.149 300.808C454.392 302.266 443.595 301.335 436.803 301.335C425.741 301.335 421.918 308.777 420.816 311.811C437.562 310.793 452.676 306.707 466.149 300.808Z" fill="#494DC7"/>
<path d="M783.589 585.171C783.058 585.147 782.523 585.194 781.988 585.32C778.32 588.015 773.809 592.508 768.339 596.317L766.525 611.525C774.175 606.9 781.927 603.127 787.473 602.647C798.494 601.693 791.554 585.528 783.589 585.171ZM761.476 607.643C760.861 603.788 757.997 601.727 757.309 601.94L723.063 611.005C723.063 611.005 712.354 618 721.552 630.647C729.61 641.727 739.682 630.647 739.682 630.647C739.682 630.647 749.831 622.296 761.465 614.706C761.465 614.706 761.876 610.15 761.476 607.643Z" fill="#0DBB6E"/>
<path d="M537.883 585.411C539.699 585.854 541.596 584.471 542.12 582.322C542.645 580.172 541.599 578.07 539.784 577.627C537.969 577.184 536.072 578.567 535.547 580.716C535.022 582.866 536.068 584.968 537.883 585.411Z" fill="#F17E14"/>
<path d="M471.368 337.151C471.368 337.151 465.954 342.062 461.547 341.306C457.14 340.551 457.77 346.217 455 344.58C452.23 342.943 450.719 339.04 449.46 342.943C448.201 346.847 451.348 348.609 451.348 348.609C451.348 348.609 449.838 356.038 444.172 355.283C438.506 354.527 436.869 349.617 436.869 349.617C436.869 349.617 439.891 342.44 438.254 334.633C436.617 326.827 444.927 324.686 446.564 322.42C448.201 320.154 470.109 321.035 471.242 328.59C472.375 336.144 471.368 337.151 471.368 337.151Z" fill="#333353"/>
<path d="M431.105 221.386C431.105 221.386 425.229 232.069 416.326 230.111C407.423 228.152 417.751 238.124 411.34 239.904C404.93 241.685 405.464 251.656 398.164 253.793C390.863 255.93 390.507 250.588 390.507 250.588C390.507 250.588 399.588 229.042 397.095 216.934C394.602 204.826 420.243 200.196 428.969 210.88C437.694 221.564 432.886 226.015 432.886 226.015L431.105 221.386Z" fill="#18213E"/>
<path d="M694.995 292.611C694.995 292.611 680.75 300.98 677.723 300.09C674.696 299.199 679.86 278.9 691.612 279.79C703.364 280.681 712.624 275.695 717.966 284.954C723.307 294.214 724.376 300.98 718.856 305.075C713.336 309.171 703.542 330.717 702.296 330.895C701.05 331.073 700.693 315.403 702.83 312.198C704.967 308.993 708.884 308.103 706.748 304.541C704.611 300.98 701.406 310.061 696.598 310.239C691.79 310.417 694.995 292.611 694.995 292.611Z" fill="#4D3123"/>
<path d="M612.196 384.848C612.196 384.848 603.293 377.37 588.513 385.204C573.734 393.039 595.102 401.586 595.102 410.311C595.102 419.036 597.416 402.298 602.402 404.791C607.388 407.284 597.238 417.078 599.375 420.283C601.512 423.488 612.73 431.857 615.045 426.871C617.36 421.885 627.509 396.422 621.633 390.19C617.36 384.67 612.196 384.848 612.196 384.848Z" fill="#563538"/>
<path d="M330.978 439.768C330.978 439.768 332.741 471.246 313.855 488.369C294.968 505.493 329.216 506.248 339.54 478.296C349.865 450.344 351.628 441.531 351.628 441.531L330.978 439.768Z" fill="#18213E"/>
<path d="M366.646 280.325L370.92 274.627C370.92 274.627 389.972 286.557 391.575 288.872C393.178 291.187 391.397 299.199 391.397 299.199L366.646 280.325Z" fill="#494DC7"/>
<path d="M319.783 383.607C315.523 385.636 305.585 390.595 304.789 393.181C304.053 395.572 313.484 388.857 318.646 385.047L319.783 383.607Z" fill="#494DC7"/>
<path d="M731.92 633.581C736.703 632.228 739.179 626.177 737.45 620.065C735.722 613.954 730.443 610.096 725.66 611.449C720.877 612.802 718.401 618.853 720.13 624.965C721.859 631.076 727.137 634.934 731.92 633.581Z" fill="#0C7C4B"/>
<path fill-rule="evenodd" clip-rule="evenodd" d="M729.057 110.673C730.224 109.497 732.091 109.478 733.28 110.629C734.528 111.838 734.547 113.865 733.322 115.099L723.956 124.537C722.807 125.695 722.184 127.197 722.094 128.727C722.919 128.477 723.79 128.424 724.634 128.568C724.746 127.761 725.109 126.983 725.72 126.368L735.087 116.93C737.325 114.674 737.29 110.972 735.009 108.763C732.837 106.659 729.425 106.694 727.293 108.842L704.703 131.605C703.583 132.734 701.966 133.18 700.443 132.778C699.493 132.528 698.651 131.966 698.044 131.179L687.156 117.05C685.141 114.434 681.481 113.877 678.805 115.778C676.355 117.519 675.478 120.805 676.722 123.577L682.667 136.821C683.491 138.657 683.791 140.694 683.531 142.697L683.105 145.978C682.2 152.962 683.319 160.325 687.354 166.227C689.771 169.763 692.292 172.554 695.607 174.612C698.92 176.669 702.934 177.936 708.26 178.581C711.427 178.965 714.65 177.972 717.707 176.279C720.771 174.582 723.766 172.13 726.525 169.435C732.042 164.045 736.761 157.54 739.353 153.708C739.952 152.823 740.289 151.837 740.382 150.838C740.318 150.911 740.251 150.982 740.183 151.052L734.006 157.369C733.697 157.684 733.362 157.955 733.007 158.182C730.675 161.22 727.852 164.584 724.789 167.576C722.12 170.183 719.307 172.47 716.511 174.019C713.708 175.571 711.02 176.327 708.556 176.028C703.465 175.412 699.827 174.224 696.912 172.414C694 170.606 691.716 168.121 689.414 164.754C685.823 159.501 684.753 152.826 685.598 146.315L686.023 143.034C686.345 140.55 685.974 138.024 684.952 135.748L679.007 122.504C678.27 120.864 678.79 118.919 680.24 117.889C681.823 116.764 683.989 117.094 685.182 118.642L696.069 132.77C697.016 134 698.332 134.877 699.815 135.268C702.193 135.894 704.718 135.199 706.468 133.436L729.057 110.673Z" fill="#4285F4"/>
<path d="M704.5 133L731 108L734.5 108.5L735.5 113L729 121L723.5 126V128.5L725.5 130L727 132L728 134.5H731L733 135.5L735 138L733 142H736.5L739.5 143L740.5 146V148.5L738.5 153.5L733 159L722.5 171.5L713.5 176.5H710L702.5 175.5L696 172.5L691.5 169.5L684.5 157.5V149.5L685 140.5L683 135.5L677 119L680.5 116L685 116.5L698.5 133H704.5Z" fill="#4285F4"/>
<path fill-rule="evenodd" clip-rule="evenodd" d="M719.606 142.132L725.783 135.815C726.999 134.571 726.999 132.556 725.783 131.312C724.567 130.069 722.596 130.069 721.38 131.312L715.203 137.629C713.987 138.872 713.987 140.888 715.203 142.132C716.419 143.375 718.39 143.375 719.606 142.132ZM727.561 129.495C725.363 127.247 721.8 127.247 719.602 129.495L713.425 135.811C711.227 138.059 711.227 141.702 713.425 143.949C715.623 146.196 719.186 146.196 721.383 143.949L727.561 137.632C729.758 135.385 729.758 131.742 727.561 129.495Z" fill="#4285F4"/>
<rect width="2.17822" height="11.2319" rx="1.08911" transform="matrix(0.964453 0.264255 0.253479 -0.967341 705.191 112.865)" fill="#4285F4"/>
<rect width="2.17822" height="11.2319" rx="1.08911" transform="matrix(-0.964453 0.264255 -0.253479 -0.967341 702.715 112.865)" fill="#4285F4"/>
<rect width="2.19957" height="11.1249" rx="1.09978" transform="matrix(0.699175 0.71495 0.699175 -0.71495 709.499 115.422)" fill="#4285F4"/>
<rect width="2.19957" height="11.1249" rx="1.09978" transform="matrix(-0.699175 0.71495 -0.699175 -0.71495 697.866 115.422)" fill="#4285F4"/>
<path fill-rule="evenodd" clip-rule="evenodd" d="M726.362 148.166L732.54 141.85C733.756 140.606 733.756 138.59 732.54 137.347C731.324 136.104 729.352 136.104 728.137 137.347L721.959 143.664C720.743 144.907 720.743 146.923 721.959 148.166C723.175 149.41 725.147 149.41 726.362 148.166ZM734.317 135.529C732.12 133.282 728.557 133.282 726.359 135.529L720.182 141.846C717.984 144.093 717.984 147.737 720.182 149.984C722.379 152.231 725.942 152.231 728.14 149.984L734.317 143.667C736.515 141.42 736.515 137.777 734.317 135.529Z" fill="#4285F4"/>
<path fill-rule="evenodd" clip-rule="evenodd" d="M733.066 155.878L739.244 149.561C740.459 148.318 740.459 146.302 739.244 145.059C738.028 143.815 736.056 143.815 734.84 145.059L728.663 151.375C727.447 152.619 727.447 154.635 728.663 155.878C729.879 157.121 731.85 157.121 733.066 155.878ZM741.021 143.241C738.824 140.994 735.26 140.994 733.063 143.241L726.886 149.558C724.688 151.805 724.688 155.448 726.886 157.696C729.083 159.943 732.646 159.943 734.844 157.696L741.021 151.379C743.219 149.132 743.219 145.488 741.021 143.241Z" fill="#4285F4"/>
</svg>
