<svg width="500" height="500" viewBox="0 0 500 500" fill="none" xmlns="http://www.w3.org/2000/svg">
<rect width="500" height="500" fill="#E5E5E5"/>
<rect width="500" height="500" fill="white"/>
<rect x="35" y="35" width="430" height="430" fill="white" stroke="black" stroke-width="20"/>
<path fill-rule="evenodd" clip-rule="evenodd" d="M280.736 349.616C285.152 346.736 289.568 342.032 293.984 335.504L289.664 332.336C286.784 336.176 284.192 338.96 281.888 340.688C279.776 342.416 277.088 343.28 273.824 343.28C270.176 343.28 267.296 341.552 265.184 338.096C263.072 334.64 261.056 328.496 259.136 319.664L251.936 290.288C249.248 278.192 245.024 269.36 239.264 263.792C233.504 258.224 224.288 254.384 211.616 252.272L208.16 251.696C221.6 249.584 232.448 245.552 240.704 239.6C249.152 233.456 255.104 226.64 258.56 219.152C262.208 211.472 264.032 203.888 264.032 196.4C264.032 181.616 257.984 169.616 245.888 160.4C233.984 150.992 216.896 146.288 194.624 146.288C190.016 146.288 185.888 146.384 182.24 146.576L151.136 146.864C135.776 146.864 124.064 146.576 116 146V151.76C122.912 152.144 127.904 152.912 130.976 154.064C134.24 155.216 136.448 157.424 137.6 160.688C138.752 163.952 139.328 169.232 139.328 176.528V319.376C139.328 326.672 138.752 331.952 137.6 335.216C136.448 338.48 134.24 340.688 130.976 341.84C127.904 342.992 122.912 343.76 116 344.144V349.904C124.064 349.328 136.352 349.04 152.864 349.04C168.416 349.04 180.608 349.328 189.44 349.904V344.144C182.528 343.76 177.44 342.992 174.176 341.84C171.104 340.688 168.992 338.48 167.84 335.216C166.688 331.952 166.112 326.672 166.112 319.376V253.136H193.472C200.768 253.136 206.432 254.768 210.464 258.032C214.496 261.296 217.472 265.616 219.392 270.992C221.504 276.368 223.712 284.048 226.016 294.032L232.352 322.832C234.848 334.352 238.592 342.416 243.584 347.024C248.768 351.632 255.296 353.936 263.168 353.936C270.464 353.936 276.32 352.496 280.736 349.616ZM173.888 153.776C176.96 152.432 181.472 151.76 187.424 151.76C204.32 151.76 216.512 155.792 224 163.856C231.488 171.92 235.232 183.824 235.232 199.568C235.232 214.544 231.68 226.256 224.576 234.704C217.472 243.152 204.416 247.376 185.408 247.376H166.112V176.528C166.112 169.616 166.688 164.432 167.84 160.976C168.992 157.52 171.008 155.12 173.888 153.776ZM357.528 177.912C360.408 180.792 363.96 182.232 368.184 182.232C372.6 182.232 376.152 180.792 378.84 177.912C381.72 175.032 383.16 171.48 383.16 167.256C383.16 162.84 381.72 159.288 378.84 156.6C376.152 153.72 372.6 152.28 368.184 152.28C363.96 152.28 360.408 153.72 357.528 156.6C354.648 159.288 353.208 162.84 353.208 167.256C353.208 171.48 354.648 175.032 357.528 177.912ZM324.12 347.544C327.768 352.152 332.184 354.456 337.368 354.456C346.008 354.456 353.976 349.368 361.272 339.192C368.76 328.824 375.096 315.864 380.28 300.312L374.52 298.584C370.296 310.104 365.208 320.856 359.256 330.84C353.304 340.824 347.064 345.816 340.536 345.816C338.424 345.816 336.792 344.952 335.64 343.224C334.488 341.496 333.912 339.288 333.912 336.6C333.912 334.296 334.392 331.416 335.352 327.96C336.504 324.504 337.56 321.72 338.52 319.608L356.952 276.696C358.488 273.432 359.832 268.824 360.984 262.872C362.136 256.728 362.712 251.544 362.712 247.32C362.712 238.488 360.888 231.672 357.24 226.872C353.784 222.072 349.56 219.672 344.568 219.672C335.928 219.672 327.864 224.856 320.376 235.224C312.888 245.592 306.552 258.456 301.368 273.816L307.128 275.544C311.352 264.024 316.44 253.272 322.392 243.288C328.536 233.304 334.872 228.312 341.4 228.312C343.512 228.312 345.048 229.176 346.008 230.904C347.16 232.632 347.736 234.84 347.736 237.528C347.736 239.832 347.16 242.712 346.008 246.168C345.048 249.624 344.088 252.408 343.128 254.52L324.696 297.432C323.16 301.08 321.816 305.88 320.664 311.832C319.512 317.592 318.936 322.584 318.936 326.808C318.936 336.024 320.664 342.936 324.12 347.544Z" fill="black"/>
</svg>
