<svg width="134" height="27" viewBox="0 0 134 27" fill="none" xmlns="http://www.w3.org/2000/svg">
<path d="M14.8887 20.6562H7.20703L5.69531 26H0.492188L8.87695 0.40625H13.3594L21.5859 26H16.3828L14.8887 20.6562ZM8.41992 16.4551H13.7285L11.1094 7.0332L8.41992 16.4551ZM27.3797 16.6133V26H22.4402V0.40625H31.1941C32.5887 0.40625 33.8484 0.611328 34.9734 1.02148C36.0984 1.41992 37.0535 1.98242 37.8387 2.70898C38.6355 3.42383 39.2449 4.28516 39.6668 5.29297C40.1004 6.30078 40.3172 7.41992 40.3172 8.65039C40.3172 9.79883 40.1004 10.8594 39.6668 11.832C39.2449 12.8047 38.6355 13.6484 37.8387 14.3633C37.0535 15.0664 36.0984 15.6172 34.9734 16.0156C33.8484 16.4141 32.5887 16.6133 31.1941 16.6133H27.3797ZM27.3797 12.6055H31.1941C31.8973 12.6055 32.5066 12.5 33.0223 12.2891C33.5379 12.0781 33.9656 11.791 34.3055 11.4277C34.657 11.0645 34.9148 10.6484 35.0789 10.1797C35.2547 9.69922 35.3426 9.20117 35.3426 8.68555C35.3426 8.08789 35.2547 7.53125 35.0789 7.01562C34.9148 6.5 34.657 6.04883 34.3055 5.66211C33.9656 5.27539 33.5379 4.9707 33.0223 4.74805C32.5066 4.52539 31.8973 4.41406 31.1941 4.41406H27.3797V12.6055ZM59.8043 15.084C59.8043 16.7246 59.5875 18.2363 59.1539 19.6191C58.7203 21.002 58.0934 22.1914 57.273 23.1875C56.4527 24.1836 55.4508 24.9629 54.2672 25.5254C53.0953 26.0762 51.7711 26.3516 50.2945 26.3516C48.818 26.3516 47.5055 26.0762 46.357 25.5254C45.2086 24.9629 44.2418 24.1836 43.4566 23.1875C42.6715 22.1797 42.0738 20.9902 41.6637 19.6191C41.2535 18.2363 41.0484 16.7246 41.0484 15.084V11.3574C41.0484 9.7168 41.2535 8.20508 41.6637 6.82227C42.0738 5.43945 42.6715 4.25 43.4566 3.25391C44.2418 2.24609 45.2027 1.46094 46.3395 0.898438C47.4879 0.335938 48.8004 0.0546875 50.277 0.0546875C51.7652 0.0546875 53.0953 0.335938 54.2672 0.898438C55.4508 1.46094 56.4527 2.24609 57.273 3.25391C58.0934 4.25 58.7203 5.43945 59.1539 6.82227C59.5875 8.20508 59.8043 9.7168 59.8043 11.3574V15.084ZM54.7945 11.3223C54.7945 10.2793 54.7066 9.31836 54.5309 8.43945C54.3668 7.56055 54.1031 6.80469 53.7398 6.17188C53.3766 5.53906 52.9078 5.04688 52.3336 4.69531C51.7711 4.33203 51.0855 4.15039 50.277 4.15039C49.4801 4.15039 48.8121 4.33203 48.273 4.69531C47.734 5.04688 47.3004 5.53906 46.9723 6.17188C46.6441 6.80469 46.4098 7.56055 46.2691 8.43945C46.1285 9.31836 46.0582 10.2793 46.0582 11.3223V15.084C46.0582 16.1152 46.1285 17.0703 46.2691 17.9492C46.4098 18.8281 46.6441 19.5898 46.9723 20.2344C47.3004 20.8789 47.734 21.3828 48.273 21.7461C48.8121 22.1094 49.4859 22.291 50.2945 22.291C51.0914 22.291 51.7711 22.1094 52.3336 21.7461C52.9078 21.3828 53.3707 20.8848 53.7223 20.252C54.0855 19.6074 54.3551 18.8457 54.5309 17.9668C54.7066 17.0879 54.7945 16.127 54.7945 15.084V11.3223ZM79.6254 15.084C79.6254 16.7246 79.4086 18.2363 78.975 19.6191C78.5414 21.002 77.9145 22.1914 77.0941 23.1875C76.2738 24.1836 75.2719 24.9629 74.0883 25.5254C72.9164 26.0762 71.5922 26.3516 70.1156 26.3516C68.6391 26.3516 67.3266 26.0762 66.1781 25.5254C65.0297 24.9629 64.0629 24.1836 63.2777 23.1875C62.4926 22.1797 61.8949 20.9902 61.4848 19.6191C61.0746 18.2363 60.8695 16.7246 60.8695 15.084V11.3574C60.8695 9.7168 61.0746 8.20508 61.4848 6.82227C61.8949 5.43945 62.4926 4.25 63.2777 3.25391C64.0629 2.24609 65.0238 1.46094 66.1605 0.898438C67.309 0.335938 68.6215 0.0546875 70.098 0.0546875C71.5863 0.0546875 72.9164 0.335938 74.0883 0.898438C75.2719 1.46094 76.2738 2.24609 77.0941 3.25391C77.9145 4.25 78.5414 5.43945 78.975 6.82227C79.4086 8.20508 79.6254 9.7168 79.6254 11.3574V15.084ZM74.6156 11.3223C74.6156 10.2793 74.5277 9.31836 74.352 8.43945C74.1879 7.56055 73.9242 6.80469 73.5609 6.17188C73.1977 5.53906 72.7289 5.04688 72.1547 4.69531C71.5922 4.33203 70.9066 4.15039 70.098 4.15039C69.3012 4.15039 68.6332 4.33203 68.0941 4.69531C67.5551 5.04688 67.1215 5.53906 66.7934 6.17188C66.4652 6.80469 66.2309 7.56055 66.0902 8.43945C65.9496 9.31836 65.8793 10.2793 65.8793 11.3223V15.084C65.8793 16.1152 65.9496 17.0703 66.0902 17.9492C66.2309 18.8281 66.4652 19.5898 66.7934 20.2344C67.1215 20.8789 67.5551 21.3828 68.0941 21.7461C68.6332 22.1094 69.307 22.291 70.1156 22.291C70.9125 22.291 71.5922 22.1094 72.1547 21.7461C72.7289 21.3828 73.1918 20.8848 73.5434 20.252C73.9066 19.6074 74.1762 18.8457 74.352 17.9668C74.5277 17.0879 74.6156 16.127 74.6156 15.084V11.3223ZM90.2707 16.4375H86.5266V26H81.5871V0.40625H90.1652C91.5832 0.40625 92.8664 0.576172 94.0148 0.916016C95.1633 1.24414 96.1418 1.73047 96.9504 2.375C97.7707 3.01953 98.3977 3.82227 98.8313 4.7832C99.2766 5.74414 99.4992 6.85742 99.4992 8.12305C99.4992 9.03711 99.3879 9.86328 99.1652 10.6016C98.9543 11.3281 98.6438 11.9844 98.2336 12.5703C97.8352 13.1445 97.3488 13.6484 96.7746 14.082C96.2121 14.5156 95.5793 14.8906 94.8762 15.207L100.378 25.7715V26H95.0871L90.2707 16.4375ZM86.5266 12.4297H90.1828C91.5773 12.4297 92.6496 12.0781 93.3996 11.375C94.1613 10.6602 94.5422 9.6875 94.5422 8.45703C94.5422 7.17969 94.173 6.18945 93.4348 5.48633C92.6965 4.77148 91.6066 4.41406 90.1652 4.41406H86.5266V12.4297ZM109.881 18.8457L114.715 0.40625H120.164L112.412 26H107.385L99.6504 0.40625H105.1L109.881 18.8457ZM126.345 23.1699C126.345 22.7129 126.421 22.291 126.573 21.9043C126.725 21.5059 126.948 21.166 127.241 20.8848C127.534 20.5918 127.891 20.3633 128.313 20.1992C128.735 20.0234 129.21 19.9355 129.737 19.9355C130.264 19.9355 130.739 20.0234 131.161 20.1992C131.583 20.3633 131.934 20.5918 132.216 20.8848C132.509 21.166 132.731 21.5059 132.884 21.9043C133.048 22.291 133.13 22.7129 133.13 23.1699C133.13 23.6152 133.048 24.0312 132.884 24.418C132.731 24.8047 132.509 25.1445 132.216 25.4375C131.934 25.7188 131.583 25.9414 131.161 26.1055C130.739 26.2695 130.264 26.3516 129.737 26.3516C129.21 26.3516 128.735 26.2695 128.313 26.1055C127.891 25.9414 127.534 25.7188 127.241 25.4375C126.948 25.1445 126.725 24.8047 126.573 24.418C126.421 24.0312 126.345 23.6152 126.345 23.1699Z" fill="url(#paint0_linear)"/>
<defs>
<linearGradient id="paint0_linear" x1="114.5" y1="5.49999" x2="-5.81003e-07" y2="35" gradientUnits="userSpaceOnUse">
<stop offset="0.177083" stop-color="#854FEE"/>
<stop offset="1" stop-color="#4458DC"/>
</linearGradient>
</defs>
</svg>
