<svg width="139" height="42" viewBox="0 0 139 42" fill="none" xmlns="http://www.w3.org/2000/svg">
<g filter="url(#filter0_d)">
<rect width="467" height="661" transform="translate(-104 -321)" fill="white"/>
<path d="M14.8887 27.6562H7.20703L5.69531 33H0.492188L8.87695 7.40625H13.3594L21.5859 33H16.3828L14.8887 27.6562ZM8.41992 23.4551H13.7285L11.1094 14.0332L8.41992 23.4551ZM27.3797 23.6133V33H22.4402V7.40625H31.1941C32.5887 7.40625 33.8484 7.61133 34.9734 8.02148C36.0984 8.41992 37.0535 8.98242 37.8387 9.70898C38.6355 10.4238 39.2449 11.2852 39.6668 12.293C40.1004 13.3008 40.3172 14.4199 40.3172 15.6504C40.3172 16.7988 40.1004 17.8594 39.6668 18.832C39.2449 19.8047 38.6355 20.6484 37.8387 21.3633C37.0535 22.0664 36.0984 22.6172 34.9734 23.0156C33.8484 23.4141 32.5887 23.6133 31.1941 23.6133H27.3797ZM27.3797 19.6055H31.1941C31.8973 19.6055 32.5066 19.5 33.0223 19.2891C33.5379 19.0781 33.9656 18.791 34.3055 18.4277C34.657 18.0645 34.9148 17.6484 35.0789 17.1797C35.2547 16.6992 35.3426 16.2012 35.3426 15.6855C35.3426 15.0879 35.2547 14.5312 35.0789 14.0156C34.9148 13.5 34.657 13.0488 34.3055 12.6621C33.9656 12.2754 33.5379 11.9707 33.0223 11.748C32.5066 11.5254 31.8973 11.4141 31.1941 11.4141H27.3797V19.6055ZM59.8043 22.084C59.8043 23.7246 59.5875 25.2363 59.1539 26.6191C58.7203 28.002 58.0934 29.1914 57.273 30.1875C56.4527 31.1836 55.4508 31.9629 54.2672 32.5254C53.0953 33.0762 51.7711 33.3516 50.2945 33.3516C48.818 33.3516 47.5055 33.0762 46.357 32.5254C45.2086 31.9629 44.2418 31.1836 43.4566 30.1875C42.6715 29.1797 42.0738 27.9902 41.6637 26.6191C41.2535 25.2363 41.0484 23.7246 41.0484 22.084V18.3574C41.0484 16.7168 41.2535 15.2051 41.6637 13.8223C42.0738 12.4395 42.6715 11.25 43.4566 10.2539C44.2418 9.24609 45.2027 8.46094 46.3395 7.89844C47.4879 7.33594 48.8004 7.05469 50.277 7.05469C51.7652 7.05469 53.0953 7.33594 54.2672 7.89844C55.4508 8.46094 56.4527 9.24609 57.273 10.2539C58.0934 11.25 58.7203 12.4395 59.1539 13.8223C59.5875 15.2051 59.8043 16.7168 59.8043 18.3574V22.084ZM54.7945 18.3223C54.7945 17.2793 54.7066 16.3184 54.5309 15.4395C54.3668 14.5605 54.1031 13.8047 53.7398 13.1719C53.3766 12.5391 52.9078 12.0469 52.3336 11.6953C51.7711 11.332 51.0855 11.1504 50.277 11.1504C49.4801 11.1504 48.8121 11.332 48.273 11.6953C47.734 12.0469 47.3004 12.5391 46.9723 13.1719C46.6441 13.8047 46.4098 14.5605 46.2691 15.4395C46.1285 16.3184 46.0582 17.2793 46.0582 18.3223V22.084C46.0582 23.1152 46.1285 24.0703 46.2691 24.9492C46.4098 25.8281 46.6441 26.5898 46.9723 27.2344C47.3004 27.8789 47.734 28.3828 48.273 28.7461C48.8121 29.1094 49.4859 29.291 50.2945 29.291C51.0914 29.291 51.7711 29.1094 52.3336 28.7461C52.9078 28.3828 53.3707 27.8848 53.7223 27.252C54.0855 26.6074 54.3551 25.8457 54.5309 24.9668C54.7066 24.0879 54.7945 23.127 54.7945 22.084V18.3223ZM79.6254 22.084C79.6254 23.7246 79.4086 25.2363 78.975 26.6191C78.5414 28.002 77.9145 29.1914 77.0941 30.1875C76.2738 31.1836 75.2719 31.9629 74.0883 32.5254C72.9164 33.0762 71.5922 33.3516 70.1156 33.3516C68.6391 33.3516 67.3266 33.0762 66.1781 32.5254C65.0297 31.9629 64.0629 31.1836 63.2777 30.1875C62.4926 29.1797 61.8949 27.9902 61.4848 26.6191C61.0746 25.2363 60.8695 23.7246 60.8695 22.084V18.3574C60.8695 16.7168 61.0746 15.2051 61.4848 13.8223C61.8949 12.4395 62.4926 11.25 63.2777 10.2539C64.0629 9.24609 65.0238 8.46094 66.1605 7.89844C67.309 7.33594 68.6215 7.05469 70.098 7.05469C71.5863 7.05469 72.9164 7.33594 74.0883 7.89844C75.2719 8.46094 76.2738 9.24609 77.0941 10.2539C77.9145 11.25 78.5414 12.4395 78.975 13.8223C79.4086 15.2051 79.6254 16.7168 79.6254 18.3574V22.084ZM74.6156 18.3223C74.6156 17.2793 74.5277 16.3184 74.352 15.4395C74.1879 14.5605 73.9242 13.8047 73.5609 13.1719C73.1977 12.5391 72.7289 12.0469 72.1547 11.6953C71.5922 11.332 70.9066 11.1504 70.098 11.1504C69.3012 11.1504 68.6332 11.332 68.0941 11.6953C67.5551 12.0469 67.1215 12.5391 66.7934 13.1719C66.4652 13.8047 66.2309 14.5605 66.0902 15.4395C65.9496 16.3184 65.8793 17.2793 65.8793 18.3223V22.084C65.8793 23.1152 65.9496 24.0703 66.0902 24.9492C66.2309 25.8281 66.4652 26.5898 66.7934 27.2344C67.1215 27.8789 67.5551 28.3828 68.0941 28.7461C68.6332 29.1094 69.307 29.291 70.1156 29.291C70.9125 29.291 71.5922 29.1094 72.1547 28.7461C72.7289 28.3828 73.1918 27.8848 73.5434 27.252C73.9066 26.6074 74.1762 25.8457 74.352 24.9668C74.5277 24.0879 74.6156 23.127 74.6156 22.084V18.3223ZM90.2707 23.4375H86.5266V33H81.5871V7.40625H90.1652C91.5832 7.40625 92.8664 7.57617 94.0148 7.91602C95.1633 8.24414 96.1418 8.73047 96.9504 9.375C97.7707 10.0195 98.3977 10.8223 98.8313 11.7832C99.2766 12.7441 99.4992 13.8574 99.4992 15.123C99.4992 16.0371 99.3879 16.8633 99.1652 17.6016C98.9543 18.3281 98.6438 18.9844 98.2336 19.5703C97.8352 20.1445 97.3488 20.6484 96.7746 21.082C96.2121 21.5156 95.5793 21.8906 94.8762 22.207L100.378 32.7715V33H95.0871L90.2707 23.4375ZM86.5266 19.4297H90.1828C91.5773 19.4297 92.6496 19.0781 93.3996 18.375C94.1613 17.6602 94.5422 16.6875 94.5422 15.457C94.5422 14.1797 94.173 13.1895 93.4348 12.4863C92.6965 11.7715 91.6066 11.4141 90.1652 11.4141H86.5266V19.4297ZM109.881 25.8457L114.715 7.40625H120.164L112.412 33H107.385L99.6504 7.40625H105.1L109.881 25.8457ZM126.345 30.1699C126.345 29.7129 126.421 29.291 126.573 28.9043C126.725 28.5059 126.948 28.166 127.241 27.8848C127.534 27.5918 127.891 27.3633 128.313 27.1992C128.735 27.0234 129.21 26.9355 129.737 26.9355C130.264 26.9355 130.739 27.0234 131.161 27.1992C131.583 27.3633 131.934 27.5918 132.216 27.8848C132.509 28.166 132.731 28.5059 132.884 28.9043C133.048 29.291 133.13 29.7129 133.13 30.1699C133.13 30.6152 133.048 31.0312 132.884 31.418C132.731 31.8047 132.509 32.1445 132.216 32.4375C131.934 32.7188 131.583 32.9414 131.161 33.1055C130.739 33.2695 130.264 33.3516 129.737 33.3516C129.21 33.3516 128.735 33.2695 128.313 33.1055C127.891 32.9414 127.534 32.7188 127.241 32.4375C126.948 32.1445 126.725 31.8047 126.573 31.418C126.421 31.0312 126.345 30.6152 126.345 30.1699Z" fill="url(#paint0_linear)" fill-opacity="0.7"/>
</g>
<defs>
<filter id="filter0_d" x="-108" y="-321" width="475" height="669" filterUnits="userSpaceOnUse" color-interpolation-filters="sRGB">
<feFlood flood-opacity="0" result="BackgroundImageFix"/>
<feColorMatrix in="SourceAlpha" type="matrix" values="0 0 0 0 0 0 0 0 0 0 0 0 0 0 0 0 0 0 127 0"/>
<feOffset dy="4"/>
<feGaussianBlur stdDeviation="2"/>
<feColorMatrix type="matrix" values="0 0 0 0 0 0 0 0 0 0 0 0 0 0 0 0 0 0 0.25 0"/>
<feBlend mode="normal" in2="BackgroundImageFix" result="effect1_dropShadow"/>
<feBlend mode="normal" in="SourceGraphic" in2="effect1_dropShadow" result="shape"/>
</filter>
<linearGradient id="paint0_linear" x1="105.742" y1="33" x2="15.3497" y2="33" gradientUnits="userSpaceOnUse">
<stop offset="0.151042" stop-color="#B861FD"/>
<stop offset="1" stop-color="#4031EA"/>
</linearGradient>
</defs>
</svg>
